<svg xmlns="http://www.w3.org/2000/svg" viewBox="0 0 120 120" role="img" aria-label="PhotoBox 照片盲盒 Logo · 惊喜盒">
  <defs>
    <linearGradient id="pb-brand" x1="0" y1="0" x2="1" y2="1">
      <stop offset="0" stop-color="#ff6b00"/>
      <stop offset="1" stop-color="#ff3d5e"/>
    </linearGradient>
  </defs>
  <rect x="4" y="4" width="112" height="112" rx="27" fill="url(#pb-brand)"/>
  <!-- 弹出的照片卡 -->
  <g transform="rotate(-14 60 46)">
    <rect x="42" y="20" width="37" height="44" rx="6" fill="#fff"/>
    <rect x="46.5" y="25" width="28" height="26" rx="3.5" fill="url(#pb-brand)" opacity=".9"/>
    <circle cx="53" cy="32" r="2.6" fill="#fff"/>
    <path d="M46.5 47l7-7.5 5.5 6 5-5.5 10.5 11v0a3.5 3.5 0 0 1-3.5 3.5H50a3.5 3.5 0 0 1-3.5-3.5z" fill="#fff" opacity=".92"/>
    <rect x="46.5" y="55.5" width="17" height="3.4" rx="1.7" fill="#ffd9bd"/>
  </g>
  <!-- 盒子 -->
  <path d="M28 62h64v26a10 10 0 0 1-10 10H38a10 10 0 0 1-10-10V62z" fill="#fff"/>
  <path d="M28 62h64v9H28z" fill="#000" opacity=".07"/>
  <rect x="55" y="62" width="10" height="46" fill="url(#pb-brand)"/>
  <!-- 打开的盒盖 -->
  <path d="M28 62 15 52c-1.8-1.4-1-4.3 1.2-4.3H40z" fill="#fff" opacity=".95"/>
  <path d="M92 62l13-10c1.8-1.4 1-4.3-1.2-4.3H80z" fill="#fff" opacity=".95"/>
  <!-- 星光 -->
  <path d="M88 22l2.4 6.2 6.2 2.4-6.2 2.4L88 39.2l-2.4-6.2-6.2-2.4 6.2-2.4z" fill="#fff"/>
  <path d="M28 30l1.5 3.9 3.9 1.5-3.9 1.5L28 40.8l-1.5-3.9-3.9-1.5 3.9-1.5z" fill="#fff" opacity=".85"/>
  <circle cx="96" cy="46" r="2.4" fill="#fff" opacity=".8"/>
</svg>
